<?xml version="1.0" standalone="no"?>
<!DOCTYPE svg PUBLIC "-//W3C//DTD SVG 20010904//EN"
 "http://www.w3.org/TR/2001/REC-SVG-20010904/DTD/svg10.dtd">
<svg version="1.0" xmlns="http://www.w3.org/2000/svg"
 width="400.000000pt" height="146.000000pt" viewBox="0 0 400.000000 146.000000"
 preserveAspectRatio="xMidYMid meet">

<g transform="translate(0.000000,146.000000) scale(0.100000,-0.100000)"
fill="#000000" stroke="none">
<path d="M3070 1447 c0 -3 -25 -176 -55 -382 -30 -207 -55 -381 -55 -386 0 -5
20 -9 45 -9 25 0 45 1 45 3 0 12 81 531 83 533 1 2 99 -120 217 -270 118 -151
218 -271 221 -267 3 3 29 166 58 361 28 195 54 365 57 378 4 20 1 22 -46 22
-59 0 -48 33 -95 -285 -33 -224 -40 -255 -49 -244 -1 2 -92 121 -201 264 -202
266 -225 294 -225 282z"/>
<path d="M1386 1398 c9 -24 67 -194 130 -378 64 -184 119 -339 123 -343 5 -5
71 111 147 257 77 146 141 266 144 266 3 0 45 -123 94 -272 81 -251 89 -271
101 -248 300 586 385 753 385 757 0 2 -23 3 -52 1 l-52 -3 -135 -257 c-74
-142 -138 -258 -141 -258 -4 0 -44 117 -90 260 -47 143 -87 260 -90 260 -3 0
-68 -119 -144 -265 -77 -146 -142 -262 -147 -258 -4 4 -46 124 -94 266 l-88
257 -53 0 -53 0 15 -42z"/>
<path d="M708 1390 c-30 -48 -409 -711 -414 -725 -5 -12 4 -15 43 -15 l50 0
51 84 52 84 72 7 c40 3 109 5 152 3 l79 -3 23 -83 c12 -46 25 -86 27 -89 3 -2
22 -3 44 -1 l38 3 -101 380 c-96 362 -102 378 -116 355z m26 -345 c19 -71 34
-131 32 -132 -2 -2 -53 -2 -113 -1 l-110 3 75 132 c42 73 77 131 78 130 2 -1
19 -61 38 -132z"/>
<path d="M1693 503 l-123 -64 0 -153 0 -154 128 -65 129 -66 124 72 124 72 3
156 2 155 -127 57 c-71 31 -130 57 -133 56 -3 -1 -60 -31 -127 -66z m240 -104
l37 -19 0 -84 0 -84 -72 -42 -73 -42 -72 36 -73 36 0 84 0 84 73 39 c79 44 77
44 180 -8z"/>
<path d="M3215 515 c-50 -20 -102 -69 -126 -120 -21 -45 -25 -138 -8 -198 33
-119 187 -185 332 -143 l57 17 0 49 0 50 -40 -20 c-48 -24 -129 -26 -171 -4
-37 19 -69 83 -69 139 0 52 31 119 65 141 36 24 122 22 174 -3 l41 -20 0 47
c0 41 -3 48 -27 60 -43 20 -180 23 -228 5z"/>
<path d="M0 285 l0 -235 55 0 55 0 0 162 c0 100 4 158 9 153 5 -6 46 -77 89
-160 l80 -150 71 -3 71 -3 0 236 0 235 -60 0 -60 0 0 -162 0 -163 -86 163 -85
162 -70 0 -69 0 0 -235z"/>
<path d="M666 512 c-8 -14 -166 -443 -166 -453 0 -5 26 -9 58 -9 l58 0 14 43
15 42 91 3 c98 3 104 1 121 -53 9 -28 13 -30 70 -33 l61 -3 -49 133 c-27 73
-66 179 -87 235 l-37 103 -72 0 c-39 0 -74 -4 -77 -8z m81 -290 c-33 -2 -62 0
-65 3 -4 3 4 36 17 73 46 130 40 128 76 22 l32 -95 -60 -3z"/>
<path d="M1050 285 l0 -235 60 0 60 0 2 159 3 160 84 -160 84 -159 68 0 69 0
0 235 0 235 -55 0 -55 0 0 -155 c0 -85 -3 -155 -8 -155 -4 0 -43 69 -87 153
l-81 152 -72 3 -72 3 0 -236z"/>
<path d="M2150 475 l0 -45 75 0 75 0 0 -190 0 -190 60 0 60 0 0 190 0 190 80
0 80 0 0 45 0 45 -215 0 -215 0 0 -45z"/>
<path d="M2650 285 l0 -235 165 0 165 0 0 45 0 45 -105 0 -105 0 0 55 0 55 95
0 95 0 0 45 0 45 -95 0 -95 0 0 45 0 44 103 3 102 3 3 43 3 42 -165 0 -166 0
0 -235z"/>
<path d="M3570 285 l0 -235 60 0 60 0 0 100 0 100 95 0 95 0 0 -100 0 -100 60
0 60 0 0 235 0 235 -60 0 -60 0 0 -90 0 -91 -92 3 -93 3 -3 88 -3 87 -59 0
-60 0 0 -235z"/>
</g>
</svg>
