<?xml version="1.0" standalone="no"?>
<!DOCTYPE svg PUBLIC "-//W3C//DTD SVG 20010904//EN"
 "http://www.w3.org/TR/2001/REC-SVG-20010904/DTD/svg10.dtd">
<svg version="1.0" xmlns="http://www.w3.org/2000/svg"
 width="1112.000000pt" height="109.000000pt" viewBox="0 0 1112.000000 109.000000"
 preserveAspectRatio="xMidYMid meet">

<g transform="translate(0.000000,109.000000) scale(0.100000,-0.100000)"
fill="#000000" stroke="none">
<path d="M7074 1056 c-246 -47 -415 -233 -439 -482 -29 -299 220 -555 540
-554 104 0 199 21 283 62 86 42 196 150 236 232 96 201 60 439 -90 588 -63 62
-166 122 -248 144 -78 21 -202 25 -282 10z m287 -144 c166 -79 260 -239 246
-415 -13 -156 -129 -296 -285 -344 -69 -21 -195 -18 -264 6 -256 89 -366 389
-223 607 81 124 210 187 370 181 77 -3 101 -9 156 -35z"/>
<path d="M10941 623 c1 -247 4 -485 7 -530 l7 -82 78 136 77 136 7 246 6 246
-84 148 c-46 81 -87 147 -91 147 -5 0 -8 -201 -7 -447z"/>
<path d="M2733 953 c-28 -60 -134 -286 -237 -504 -102 -218 -186 -401 -186
-405 0 -5 29 -8 63 -6 l64 4 80 171 80 172 250 2 250 2 73 -157 c97 -212 85
-198 158 -194 71 4 71 -11 -6 152 -202 426 -402 854 -402 862 0 4 -31 8 -68 8
l-69 0 -50 -107z m217 -252 c49 -106 90 -195 90 -197 0 -2 -85 -4 -190 -4
-105 0 -190 4 -190 9 0 22 184 401 191 394 5 -5 49 -95 99 -202z"/>
<path d="M3680 551 l0 -509 58 -4 c31 -2 60 -3 65 -1 4 3 7 233 7 514 l0 509
-65 0 -65 0 0 -509z"/>
<path d="M0 540 l0 -512 273 5 c286 5 352 14 440 58 100 50 148 125 155 239 4
63 1 85 -18 128 -28 64 -96 127 -158 145 l-44 13 25 17 c75 49 112 124 103
204 -11 97 -51 144 -153 184 -54 21 -75 23 -340 27 l-283 4 0 -512z m523 380
c29 -8 63 -26 84 -46 33 -31 35 -37 30 -79 -2 -25 -13 -55 -23 -66 -51 -57
-173 -82 -369 -77 l-110 3 -3 129 c-1 72 0 136 3 144 5 13 32 14 173 9 92 -3
189 -11 215 -17z m78 -408 c90 -36 129 -88 129 -175 0 -68 -28 -112 -90 -143
-66 -33 -152 -44 -342 -44 l-168 0 0 196 0 196 208 -4 c182 -4 214 -7 263 -26z"/>
<path d="M1180 540 l0 -510 65 0 65 0 0 169 c0 94 3 172 8 175 4 2 99 6 211 7
l204 3 89 -177 88 -177 74 0 75 0 -68 142 c-38 79 -80 167 -95 196 -15 30 -26
55 -24 56 2 2 21 13 43 26 104 61 146 133 153 263 5 107 -9 162 -55 217 -84
98 -185 120 -558 120 l-275 0 0 -510z m612 371 c112 -36 163 -118 140 -228
-14 -65 -30 -92 -75 -127 -58 -44 -131 -56 -349 -56 l-198 0 0 213 c0 118 3
217 8 222 4 4 97 5 207 2 164 -4 212 -9 267 -26z"/>
<path d="M4270 550 c0 -275 0 -503 0 -507 0 -5 25 -9 55 -11 l55 -3 2 407 3
406 126 -153 c145 -177 432 -529 493 -606 41 -52 41 -52 99 -52 l57 -1 0 510
0 510 -60 0 -60 0 -2 -399 -3 -399 -135 165 c-74 92 -171 210 -215 263 -44 54
-129 158 -190 233 l-110 136 -57 0 -58 1 0 -500z"/>
<path d="M5570 541 l0 -511 213 0 c242 0 353 10 444 41 84 28 141 73 178 139
26 48 30 65 30 135 0 85 -20 141 -68 193 -24 27 -108 72 -132 72 -24 0 -18 13
15 32 16 9 43 38 60 64 25 39 30 59 30 106 0 75 -17 114 -68 160 -71 64 -110
71 -424 76 l-278 4 0 -511z m447 389 c102 -11 154 -37 177 -85 15 -32 16 -41
4 -78 -27 -86 -129 -116 -390 -117 l-108 0 0 145 0 145 118 0 c64 0 154 -4
199 -10z m73 -400 c119 -19 190 -73 206 -156 16 -86 -30 -158 -124 -195 -51
-20 -81 -23 -264 -27 l-208 -4 0 196 0 196 163 0 c89 0 191 -5 227 -10z"/>
<path d="M7916 1013 c16 -21 104 -134 196 -252 l168 -214 -41 -51 c-42 -52
-266 -341 -327 -422 l-34 -44 79 0 78 0 158 205 c87 113 162 205 165 205 4 -1
78 -93 166 -205 l159 -205 83 0 c46 0 84 3 84 6 0 3 -90 120 -200 259 -110
140 -200 258 -200 263 0 5 84 116 186 248 l185 239 -67 3 c-37 2 -72 1 -79 -1
-6 -3 -73 -85 -150 -183 -76 -99 -143 -185 -150 -192 -9 -10 -43 27 -165 183
l-153 195 -85 0 -84 0 28 -37z"/>
<path d="M9765 669 c-121 -210 -235 -409 -254 -443 l-33 -61 43 -77 c24 -43
46 -78 49 -78 3 0 50 78 106 173 l100 172 305 0 304 0 95 -166 c52 -91 99
-167 104 -168 6 -2 29 31 53 72 l44 75 -236 416 c-129 228 -240 427 -247 441
-11 24 -14 25 -112 25 l-101 -1 -220 -380z m419 37 c53 -93 95 -171 93 -173
-2 -2 -92 -2 -200 -1 l-196 3 101 173 c56 94 102 171 103 170 1 -2 46 -79 99
-172z"/>
</g>
</svg>
