<?xml version="1.0" standalone="no"?>
<!DOCTYPE svg PUBLIC "-//W3C//DTD SVG 20010904//EN"
 "http://www.w3.org/TR/2001/REC-SVG-20010904/DTD/svg10.dtd">
<svg version="1.0" xmlns="http://www.w3.org/2000/svg"
 width="1000.000000pt" height="1000.000000pt" viewBox="0 0 1000.000000 1000.000000"
 preserveAspectRatio="xMidYMid meet">

<g transform="translate(0.000000,1000.000000) scale(0.100000,-0.100000)"
fill="#000000" stroke="none">
<path d="M0 5000 l0 -5000 5000 0 5000 0 0 5000 0 5000 -5000 0 -5000 0 0
-5000z m6412 173 c89 -42 151 -101 191 -182 30 -62 32 -72 32 -176 0 -98 -3
-116 -27 -167 -87 -187 -314 -282 -520 -218 -118 36 -197 105 -249 214 -25 53
-29 73 -29 152 0 112 18 173 70 247 47 65 110 112 195 144 51 20 75 23 165 20
94 -2 112 -6 172 -34z m-5104 3 c115 -49 143 -187 56 -274 -19 -19 -34 -35
-34 -37 0 -2 11 -6 25 -9 35 -9 96 -65 111 -103 17 -39 18 -140 3 -180 -25
-66 -110 -123 -214 -142 -32 -6 -141 -11 -242 -11 l-183 0 0 391 0 391 218 -4
c182 -3 224 -7 260 -22z m936 -1 c74 -27 122 -80 136 -152 24 -113 -19 -229
-102 -276 -21 -12 -38 -28 -38 -35 0 -7 29 -71 65 -142 36 -71 65 -134 65
-140 0 -6 -25 -10 -56 -10 l-55 0 -65 136 -65 137 -52 -7 c-29 -3 -98 -6 -154
-6 l-103 0 0 -130 0 -130 -50 0 -50 0 0 391 0 391 238 -4 c198 -4 245 -7 286
-23z m952 -358 c96 -208 174 -382 174 -388 0 -6 -20 -9 -47 -7 l-48 3 -60 132
-60 133 -189 -3 -189 -2 -60 -132 -61 -133 -48 0 c-26 0 -48 3 -48 6 0 3 50
114 111 247 61 133 140 306 176 385 l66 143 55 -3 55 -3 173 -378z m494 -8 l0
-390 -47 3 -48 3 -3 388 -2 387 50 0 50 0 0 -391z m675 85 l245 -306 0 306 0
306 45 0 45 0 0 -390 0 -390 -42 0 -43 0 -245 306 -245 305 -3 -305 -2 -306
-45 0 -45 0 0 390 0 390 45 0 45 0 245 -306z m1086 290 c68 -21 102 -45 123
-88 32 -67 17 -144 -38 -195 -32 -30 -32 -37 -2 -45 70 -17 126 -105 126 -196
0 -73 -28 -131 -81 -169 -75 -55 -122 -64 -356 -69 l-213 -4 0 391 0 391 193
0 c149 0 206 -4 248 -16z m1535 -126 c60 -79 114 -143 119 -142 6 0 59 64 119
142 l109 142 58 0 c33 0 59 -2 59 -4 0 -2 -63 -86 -140 -187 -77 -100 -139
-186 -138 -190 2 -4 66 -90 144 -191 77 -101 144 -189 148 -195 5 -10 -8 -13
-57 -13 l-64 0 -119 155 c-65 85 -122 154 -126 153 -3 -2 -59 -72 -123 -155
l-116 -153 -60 0 c-56 0 -59 1 -47 18 7 10 60 80 118 156 58 75 119 156 136
179 l32 42 -143 185 c-79 102 -144 188 -144 193 -1 4 28 7 63 7 l63 0 109
-142z"/>
<path d="M6113 5101 c-103 -38 -172 -117 -194 -219 -29 -141 46 -289 179 -353
67 -32 187 -33 257 -1 113 52 179 154 178 278 0 122 -66 227 -179 283 -66 33
-170 39 -241 12z"/>
<path d="M930 5006 l0 -106 128 0 c171 1 232 24 247 91 8 37 -13 72 -58 96
-24 12 -66 18 -174 21 l-143 5 0 -107z"/>
<path d="M938 4805 c-5 -5 -8 -73 -8 -153 l0 -145 153 6 c83 3 170 11 191 17
142 42 139 216 -4 259 -49 14 -321 27 -332 16z"/>
<path d="M1820 4945 l0 -167 168 4 c186 3 223 13 264 71 32 45 36 131 8 175
-37 59 -91 75 -277 80 l-163 5 0 -168z"/>
<path d="M2897 4943 c-37 -81 -67 -151 -67 -155 0 -5 63 -8 140 -8 l140 0 -9
23 c-5 12 -38 82 -73 155 l-63 133 -68 -148z"/>
<path d="M5110 5005 l0 -105 116 0 c137 0 193 12 229 50 21 22 26 35 23 65 -6
70 -76 95 -264 95 l-104 0 0 -105z"/>
<path d="M5110 4658 l0 -148 113 0 c249 0 327 37 327 156 0 39 -5 51 -33 79
-45 45 -94 56 -263 58 l-144 2 0 -147z"/>
</g>
</svg>
