<?xml version="1.0" standalone="no"?>
<!DOCTYPE svg PUBLIC "-//W3C//DTD SVG 20010904//EN"
 "http://www.w3.org/TR/2001/REC-SVG-20010904/DTD/svg10.dtd">
<svg version="1.0" xmlns="http://www.w3.org/2000/svg"
 width="772.000000pt" height="242.000000pt" viewBox="0 0 772.000000 242.000000"
 preserveAspectRatio="xMidYMid meet">

<g transform="translate(0.000000,242.000000) scale(0.100000,-0.100000)"
fill="#000000" stroke="none">
<path d="M2400 2342 c0 -10 -45 -32 -65 -32 -8 0 -47 -15 -87 -34 -79 -37
-141 -95 -170 -159 -25 -54 -24 -158 3 -213 18 -38 99 -134 113 -134 3 0 24
-13 48 -28 24 -16 70 -37 103 -47 141 -42 214 -76 261 -121 33 -30 36 -38 31
-71 -10 -57 -48 -82 -125 -83 -92 0 -129 32 -166 143 -5 15 -21 17 -148 17
-79 0 -149 -4 -156 -9 -20 -12 10 -95 55 -149 45 -55 92 -86 179 -118 62 -24
84 -26 214 -27 148 0 220 13 316 58 28 13 104 81 129 116 36 49 62 217 36 233
-5 3 -12 17 -15 30 -7 28 -35 60 -86 98 -39 29 -195 98 -222 98 -39 0 -171 66
-214 107 -53 51 -46 126 16 158 67 35 129 3 168 -85 15 -33 31 -61 37 -63 8
-3 285 18 292 22 0 1 -6 20 -15 44 -19 48 -54 101 -89 135 -30 30 -127 77
-176 86 -21 4 -41 14 -44 22 -4 11 -28 14 -114 14 -60 0 -109 -4 -109 -8z"/>
<path d="M4157 2336 c-3 -8 -23 -18 -44 -22 -63 -11 -195 -79 -243 -126 -106
-101 -145 -206 -145 -388 0 -142 15 -205 73 -302 88 -149 229 -223 422 -221
146 1 201 28 297 147 13 15 29 26 35 24 7 -3 18 -28 24 -57 18 -77 25 -82 113
-79 l76 3 0 235 0 235 -230 0 -230 0 0 -55 0 -55 65 -5 c89 -7 94 -11 86 -78
-7 -60 -28 -102 -73 -143 -83 -78 -194 -20 -223 116 -35 162 -35 330 -1 486
21 99 83 157 136 129 37 -20 57 -56 81 -150 l22 -85 64 2 c35 1 111 5 171 8
l107 7 0 26 c0 41 -60 152 -110 204 -46 47 -171 118 -209 118 -12 0 -30 9 -41
20 -17 17 -33 20 -119 20 -77 0 -100 -3 -104 -14z"/>
<path d="M3142 2278 c-15 -15 -18 -902 -2 -943 l10 -25 187 2 188 3 0 485 0
485 -185 3 c-136 2 -189 -1 -198 -10z"/>
<path d="M4982 2282 c-10 -7 -12 -111 -10 -488 l3 -479 95 0 95 0 5 287 c3
157 8 290 13 294 13 13 41 -28 95 -138 29 -59 52 -110 52 -112 0 -3 37 -80 81
-171 l81 -166 71 3 71 3 22 45 c12 25 30 63 39 85 28 64 102 221 158 335 80
160 82 157 85 -177 l2 -283 23 -5 c12 -3 99 -4 192 -3 l170 3 0 485 0 485
-180 3 c-99 1 -190 0 -202 -3 -16 -4 -34 -28 -61 -83 -21 -42 -43 -86 -49 -97
-25 -48 -116 -247 -134 -292 -5 -13 -15 -23 -23 -23 -17 0 -56 46 -56 67 0 7
-6 24 -14 36 -8 12 -52 103 -97 202 -45 99 -87 183 -93 187 -15 10 -418 10
-434 0z"/>
<path d="M6816 2268 c-8 -13 -24 -54 -36 -93 -12 -38 -28 -86 -35 -105 -7 -19
-22 -64 -33 -100 -28 -86 -50 -150 -62 -175 -15 -34 -70 -203 -70 -215 0 -7
-6 -26 -14 -43 -26 -60 -74 -216 -68 -221 3 -3 54 -6 112 -6 119 0 123 2 135
65 7 43 32 96 49 107 6 4 74 8 152 8 165 0 162 2 191 -105 l20 -70 204 -3
c112 -1 209 0 216 2 9 4 10 13 3 33 -4 15 -18 62 -30 103 -54 183 -74 246 -96
297 -8 17 -14 37 -14 45 1 7 -20 76 -44 153 -25 77 -55 174 -67 215 -12 41
-28 87 -36 103 l-14 27 -224 0 c-222 0 -225 0 -239 -22z m157 -266 c9 -10 21
-41 26 -68 6 -27 20 -85 31 -129 40 -146 45 -185 29 -196 -8 -5 -61 -8 -119
-7 l-105 3 0 45 c1 25 16 93 33 150 18 58 38 121 44 140 27 88 33 94 61 62z"/>
<path d="M2000 1090 c-7 -12 -9 -89 -8 -207 l3 -188 139 -3 c77 -1 143 1 148
6 5 5 6 16 2 25 -5 14 -21 17 -98 17 -58 0 -96 4 -104 12 -16 16 -16 105 0
114 7 5 44 11 83 14 62 4 70 7 70 25 0 18 -8 20 -70 23 -38 2 -75 8 -82 14 -7
6 -13 28 -13 49 0 49 18 59 109 59 78 0 101 6 101 26 0 25 -39 34 -154 34
-105 0 -116 -2 -126 -20z"/>
<path d="M2407 1092 c-15 -16 -17 -45 -17 -199 0 -194 4 -208 52 -201 22 3 23
7 26 118 1 63 7 119 12 124 14 14 35 -8 108 -117 75 -112 96 -130 144 -125
l33 3 3 197 c2 189 2 198 -18 208 -14 8 -26 8 -40 0 -18 -10 -20 -21 -20 -113
0 -56 -4 -108 -9 -116 -16 -24 -48 6 -117 109 -86 130 -119 154 -157 112z"/>
<path d="M2897 1097 c-16 -11 -17 -33 -15 -207 l3 -195 140 0 c138 0 140 0
143 23 3 21 1 22 -92 22 -108 0 -126 9 -126 66 0 56 27 74 111 74 67 0 70 1
67 23 -3 20 -9 22 -63 25 -95 4 -103 7 -111 49 -11 57 16 73 121 73 86 0 97 5
87 43 -4 15 -19 17 -126 17 -82 0 -128 -4 -139 -13z"/>
<path d="M3286 1094 c-24 -23 -24 -389 0 -398 41 -16 54 -7 54 34 0 37 26 81
48 80 20 -1 54 -30 87 -72 28 -37 42 -48 64 -48 15 0 30 3 34 6 6 7 -7 34 -35
73 -25 33 -23 44 17 97 27 35 35 55 35 87 0 58 -38 113 -97 138 -58 25 -184
27 -207 3z m201 -76 c31 -29 31 -93 1 -125 -17 -18 -32 -23 -75 -23 -63 0 -68
7 -68 94 1 46 5 61 20 73 26 19 92 9 122 -19z"/>
<path d="M3784 1089 c-200 -91 -142 -402 73 -400 46 0 195 7 221 10 15 1 17
183 2 212 -9 15 -22 19 -68 19 -81 0 -104 -8 -100 -34 2 -16 11 -22 35 -24 45
-4 62 -35 36 -65 -43 -52 -57 -60 -104 -65 -47 -4 -51 -3 -94 40 -44 45 -45
46 -45 112 0 63 2 69 38 107 50 54 108 63 162 27 37 -25 65 -26 74 -2 10 25
-4 42 -54 63 -59 26 -121 26 -176 0z"/>
<path d="M4154 1095 c-4 -8 11 -39 32 -69 22 -31 57 -80 78 -111 36 -50 40
-62 44 -135 4 -74 6 -81 28 -86 36 -9 44 3 44 72 0 74 5 86 89 210 66 96 77
134 38 134 -22 0 -87 -56 -87 -74 0 -18 -63 -86 -80 -86 -12 0 -32 22 -56 63
-21 34 -47 70 -59 79 -25 21 -64 23 -71 3z"/>
<path d="M4831 1091 c-58 -31 -75 -85 -46 -141 15 -29 79 -70 108 -70 24 0 97
-59 97 -78 0 -10 -10 -29 -21 -41 -18 -19 -29 -22 -64 -18 -25 2 -57 15 -77
31 -34 25 -35 25 -51 8 -27 -30 -20 -49 26 -70 59 -29 104 -35 162 -22 69 15
105 51 105 105 0 34 -6 47 -32 71 -33 30 -97 64 -122 64 -7 0 -25 9 -40 21
-34 27 -34 63 -1 85 22 14 32 15 64 5 21 -6 44 -18 51 -26 18 -21 47 -19 60 5
14 27 8 36 -50 65 -59 30 -120 32 -169 6z"/>
<path d="M5138 1099 c-40 -23 -15 -49 47 -49 55 0 60 -15 62 -188 1 -85 6
-159 11 -164 5 -5 20 -8 33 -6 24 3 24 3 27 168 1 90 6 168 11 173 4 4 30 11
57 15 44 6 49 10 49 32 l0 25 -140 2 c-83 2 -147 -2 -157 -8z"/>
<path d="M5620 1092 c-187 -90 -165 -356 34 -401 77 -17 171 9 214 59 52 62
68 169 36 233 -53 106 -185 156 -284 109z m151 -65 c44 -29 82 -102 74 -141
-17 -95 -63 -141 -142 -141 -43 0 -57 5 -82 29 -65 63 -77 141 -31 207 49 68
121 87 181 46z"/>
<path d="M6017 1097 c-16 -11 -17 -33 -15 -207 l3 -195 35 0 c34 0 35 1 38 42
3 39 28 73 54 73 13 0 78 -62 78 -74 0 -21 35 -46 63 -46 37 0 39 10 11 59
-27 48 -31 86 -10 98 25 14 46 66 46 115 0 56 -33 101 -95 129 -48 22 -181 26
-208 6z m199 -78 c32 -30 33 -93 2 -126 -17 -18 -32 -23 -74 -23 -61 0 -64 4
-64 96 0 58 2 66 23 74 33 14 87 4 113 -21z"/>
<path d="M6538 1088 c-10 -10 -18 -21 -18 -24 0 -3 -6 -20 -14 -37 -7 -18 -21
-52 -31 -77 -24 -58 -54 -130 -65 -155 -5 -11 -16 -37 -24 -57 -15 -38 -15
-38 11 -44 32 -8 54 4 71 39 13 26 16 27 93 27 l80 0 21 -36 c18 -30 25 -35
52 -32 26 2 30 7 28 26 -2 12 -10 35 -18 50 -7 15 -14 32 -14 38 0 6 -14 45
-32 85 -87 206 -107 233 -140 197z m52 -179 c19 -34 12 -68 -15 -75 -37 -9
-57 12 -49 50 12 56 42 68 64 25z"/>
<path d="M6930 1092 c-73 -35 -107 -78 -130 -164 -20 -70 36 -182 107 -218 44
-22 59 -23 228 -18 l90 3 3 111 c3 109 2 112 -20 118 -47 12 -135 7 -149 -10
-18 -22 1 -48 39 -52 83 -8 18 -110 -76 -120 -44 -4 -52 -1 -85 27 -22 20 -42
50 -51 79 -15 44 -15 52 0 95 17 49 59 93 100 103 33 8 89 -3 104 -21 17 -21
57 -19 69 3 7 14 6 22 -7 33 -58 48 -156 62 -222 31z"/>
<path d="M7352 1102 c-9 -7 -12 -55 -10 -208 l3 -199 140 0 c138 0 140 0 143
23 3 21 1 22 -88 22 -115 0 -130 7 -130 64 0 57 17 70 99 76 58 4 66 8 66 25
0 18 -8 21 -75 25 -69 5 -75 7 -84 31 -13 37 -1 75 26 83 13 3 51 6 85 6 34 0
68 3 77 6 21 8 21 40 0 48 -23 9 -237 7 -252 -2z"/>
<path d="M3994 219 c-3 -6 -1 -16 5 -22 8 -8 11 -5 11 11 0 24 -5 28 -16 11z"/>
<path d="M4635 221 c-3 -5 -1 -12 5 -16 5 -3 10 1 10 9 0 18 -6 21 -15 7z"/>
<path d="M6004 215 c-7 -17 2 -45 13 -45 19 1 33 18 28 33 -9 22 -35 30 -41
12z"/>
<path d="M2180 206 c0 -7 9 -16 20 -19 15 -4 20 0 20 14 0 12 -7 19 -20 19
-11 0 -20 -6 -20 -14z"/>
<path d="M3762 155 c-1 -45 2 -65 7 -55 5 9 6 40 1 70 l-8 55 0 -70z"/>
<path d="M5848 183 c-3 -21 -1 -51 3 -68 5 -22 7 -13 8 38 1 74 -4 88 -11 30z"/>
<path d="M6167 198 c-8 -27 12 -56 24 -36 14 21 10 58 -5 58 -7 0 -16 -10 -19
-22z"/>
<path d="M6281 204 c0 -11 3 -14 6 -6 3 7 2 16 -1 19 -3 4 -6 -2 -5 -13z"/>
<path d="M6642 155 c0 -53 2 -62 8 -38 4 17 4 49 0 70 -6 32 -8 26 -8 -32z"/>
<path d="M6870 211 c0 -17 18 -21 24 -6 3 9 0 15 -9 15 -8 0 -15 -4 -15 -9z"/>
<path d="M7010 205 c0 -8 9 -15 20 -15 11 0 20 7 20 15 0 8 -9 15 -20 15 -11
0 -20 -7 -20 -15z"/>
<path d="M3972 165 c0 -16 2 -22 5 -12 2 9 2 23 0 30 -3 6 -5 -1 -5 -18z"/>
<path d="M6856 175 c-3 -9 -6 -24 -5 -33 0 -9 5 -4 10 12 9 32 6 48 -5 21z"/>
<path d="M4847 167 c-3 -8 -1 -20 4 -28 6 -10 9 -7 9 14 0 29 -5 35 -13 14z"/>
<path d="M6280 153 c0 -21 3 -24 9 -14 5 8 7 20 4 28 -8 21 -13 15 -13 -14z"/>
<path d="M2570 137 c0 -23 4 -36 10 -32 13 8 13 35 0 55 -7 11 -10 5 -10 -23z"/>
<path d="M3026 145 c4 -8 8 -15 10 -15 2 0 4 7 4 15 0 8 -4 15 -10 15 -5 0 -7
-7 -4 -15z"/>
<path d="M4032 140 c0 -14 2 -19 5 -12 2 6 2 18 0 25 -3 6 -5 1 -5 -13z"/>
<path d="M5653 115 c-10 -22 -9 -25 8 -25 14 0 19 7 19 25 0 32 -12 32 -27 0z"/>
<path d="M2296 108 c8 -29 11 -31 22 -24 15 9 2 46 -15 46 -10 0 -12 -6 -7
-22z"/>
<path d="M2877 111 c-3 -11 -1 -23 3 -26 14 -8 22 13 12 31 -8 14 -10 14 -15
-5z"/>
<path d="M4262 110 c-10 -17 -10 -20 3 -20 8 0 15 9 15 20 0 11 -1 20 -3 20
-1 0 -8 -9 -15 -20z"/>
<path d="M7120 113 c0 -23 15 -39 24 -25 3 5 -1 18 -9 28 -14 18 -14 18 -15
-3z"/>
<path d="M6096 105 c-3 -8 -1 -15 4 -15 6 0 10 7 10 15 0 8 -2 15 -4 15 -2 0
-6 -7 -10 -15z"/>
<path d="M6281 94 c0 -11 3 -14 6 -6 3 7 2 16 -1 19 -3 4 -6 -2 -5 -13z"/>
</g>
</svg>
